<svg width="55" height="71" viewBox="0 0 55 71" fill="none" xmlns="http://www.w3.org/2000/svg">
<g filter="url(#filter0_d_103_28)">
<path d="M12.3875 57V63H7.92354C7.15554 63 6.54754 62.936 6.09954 62.808C5.65154 62.68 5.32354 62.476 5.11554 62.196C4.91554 61.916 4.81554 61.532 4.81554 61.044C4.81554 60.436 4.93954 59.528 5.18754 58.32L5.90754 58.356L5.78754 59.316C5.77954 59.404 5.75154 59.628 5.70354 59.988C5.66354 60.34 5.64354 60.62 5.64354 60.828C5.64354 61.172 5.71154 61.44 5.84754 61.632C5.99154 61.824 6.22354 61.964 6.54354 62.052C6.87154 62.132 7.32754 62.172 7.91154 62.172H11.4635V57H12.3875ZM7.56354 55.992H8.47554V57H7.56354V55.992ZM9.06354 55.992H9.97554V57H9.06354V55.992ZM16.4753 62.172V63H14.4233V54.384H15.3473V62.172H16.4753ZM19.1842 57V63H16.4722V62.172H18.2602V57H19.1842ZM18.2602 54.876H19.1722V55.884H18.2602V54.876ZM23.2722 62.172V63H21.2202V54.384H22.1442V62.172H23.2722ZM30.3731 62.172V63H23.2691V62.172H28.0811V58.92C28.0811 58.52 27.9771 58.22 27.7691 58.02C27.5611 57.812 27.2491 57.708 26.8331 57.708C26.4731 57.708 25.7611 57.772 24.6971 57.9L24.3611 57.936L24.3251 57.252C25.5331 57.004 26.4371 56.88 27.0371 56.88C28.3491 56.88 29.0051 57.564 29.0051 58.932V62.172H30.3731ZM34.8707 62.172V63H30.3707V62.172H32.1587V57H33.0827V62.172H34.8707ZM31.4147 54.876H32.3267V55.884H31.4147V54.876ZM32.9147 54.876H33.8267V55.884H32.9147V54.876ZM38.9987 56.88C39.9747 56.88 40.6947 57.12 41.1587 57.6C41.6227 58.08 41.8547 58.88 41.8547 60V63H34.8707V62.172H36.8507C36.7387 61.484 36.6827 60.784 36.6827 60.072C36.6827 59.536 36.7147 59.008 36.7787 58.488C36.8427 57.96 36.9147 57.532 36.9947 57.204C37.1867 57.124 37.4667 57.052 37.8347 56.988C38.2027 56.916 38.5907 56.88 38.9987 56.88ZM37.6067 60.072C37.6067 60.464 37.6227 60.856 37.6547 61.248C37.6947 61.632 37.7347 61.94 37.7747 62.172H40.9307V59.988C40.9307 59.172 40.7587 58.588 40.4147 58.236C40.0707 57.884 39.5467 57.708 38.8427 57.708C38.4507 57.708 38.1027 57.748 37.7987 57.828C37.6707 58.524 37.6067 59.272 37.6067 60.072ZM43.6499 54.384H44.5739V63H43.6499V54.384Z" fill="black"/>
<path d="M5.77533 0.886658H27.3963C32.9191 0.886658 37.3963 5.36381 37.3963 10.8867V43.5966H5.77533V0.886658Z" fill="#32A1D1"/>
<path d="M10.8019 13.0898H19.6925C20.4733 14.3682 20.5099 15.0047 19.6925 15.9635H10.8019C10.1387 14.7676 10.0036 14.1234 10.8019 13.0898Z" fill="white"/>
<path d="M26.3679 13.0898H28.8226C30.1529 14.212 29.9279 14.8413 28.8226 15.9635H26.3679C25.5348 14.9861 25.3153 14.3951 26.3679 13.0898Z" fill="white"/>
<path d="M10.8019 20.9926H19.6925C20.6865 22.0914 20.619 22.7076 19.6925 23.8064H10.8019C9.96116 22.6311 9.87877 22.0075 10.8019 20.9926Z" fill="white"/>
<path d="M26.5775 20.9926H28.8226C30.0827 22.1884 29.7406 22.7781 28.8226 23.8064H26.5775C25.6578 22.8547 25.4659 22.2693 26.5775 20.9926Z" fill="white"/>
<path d="M10.8019 28.9253H19.6925C20.679 30.0437 20.4979 30.604 19.6925 31.5595H10.8019C10.2146 30.3926 9.92561 29.7478 10.8019 28.9253Z" fill="white"/>
<path d="M10.8019 13.0898H19.6925C20.4733 14.3682 20.5099 15.0047 19.6925 15.9635H10.8019C10.1387 14.7676 10.0036 14.1234 10.8019 13.0898Z" stroke="black" stroke-width="0.5"/>
<path d="M26.3679 13.0898H28.8226C30.1529 14.212 29.9279 14.8413 28.8226 15.9635H26.3679C25.5348 14.9861 25.3153 14.3951 26.3679 13.0898Z" stroke="black" stroke-width="0.5"/>
<path d="M10.8019 20.9926H19.6925C20.6865 22.0914 20.619 22.7076 19.6925 23.8064H10.8019C9.96116 22.6311 9.87877 22.0075 10.8019 20.9926Z" stroke="black" stroke-width="0.5"/>
<path d="M26.5775 20.9926H28.8226C30.0827 22.1884 29.7406 22.7781 28.8226 23.8064H26.5775C25.6578 22.8547 25.4659 22.2693 26.5775 20.9926Z" stroke="black" stroke-width="0.5"/>
<path d="M10.8019 28.9253H19.6925C20.679 30.0437 20.4979 30.604 19.6925 31.5595H10.8019C10.2146 30.3926 9.92561 29.7478 10.8019 28.9253Z" stroke="black" stroke-width="0.5"/>
<path d="M38.7598 47.4653C44.3372 47.4653 48.8648 42.956 48.8648 37.3858C48.8648 31.8157 44.3372 27.3063 38.7598 27.3063C33.1824 27.3063 28.6549 31.8157 28.6549 37.3858C28.6549 42.956 33.1824 47.4653 38.7598 47.4653Z" fill="white" stroke="black" stroke-width="2.5"/>
<path d="M34.0211 39.1545L36.2109 42.8211L43.6459 34.4694L42.5255 34.062L36.4655 41.0387L34.785 38.4415L34.0211 39.1545Z" fill="black" stroke="black" stroke-width="0.5"/>
<path d="M37.3764 26.0498V9.30246C35.4688 4.46855 34.1424 1.98727 28.0907 0.845856H5.78845V43.7092H29.3343" stroke="black"/>
</g>
<defs>
<filter id="filter0_d_103_28" x="0.815552" y="0.345856" width="53.2992" height="70.6541" filterUnits="userSpaceOnUse" color-interpolation-filters="sRGB">
<feFlood flood-opacity="0" result="BackgroundImageFix"/>
<feColorMatrix in="SourceAlpha" type="matrix" values="0 0 0 0 0 0 0 0 0 0 0 0 0 0 0 0 0 0 127 0" result="hardAlpha"/>
<feOffset dy="4"/>
<feGaussianBlur stdDeviation="2"/>
<feComposite in2="hardAlpha" operator="out"/>
<feColorMatrix type="matrix" values="0 0 0 0 0 0 0 0 0 0 0 0 0 0 0 0 0 0 0.25 0"/>
<feBlend mode="normal" in2="BackgroundImageFix" result="effect1_dropShadow_103_28"/>
<feBlend mode="normal" in="SourceGraphic" in2="effect1_dropShadow_103_28" result="shape"/>
</filter>
</defs>
</svg>
