<svg width="40" height="71" viewBox="0 0 40 71" fill="none" xmlns="http://www.w3.org/2000/svg">
<path d="M11.1751 58V64H6.71108C5.94308 64 5.33508 63.936 4.88708 63.808C4.43908 63.68 4.11108 63.476 3.90308 63.196C3.70308 62.916 3.60308 62.532 3.60308 62.044C3.60308 61.436 3.72708 60.528 3.97508 59.32L4.69508 59.356L4.57508 60.316C4.56708 60.404 4.53908 60.628 4.49108 60.988C4.45108 61.34 4.43108 61.62 4.43108 61.828C4.43108 62.172 4.49908 62.44 4.63508 62.632C4.77908 62.824 5.01108 62.964 5.33108 63.052C5.65908 63.132 6.11508 63.172 6.69908 63.172H10.2511V58H11.1751ZM6.35108 56.992H7.26308V58H6.35108V56.992ZM7.85108 56.992H8.76308V58H7.85108V56.992ZM15.2629 63.172V64H13.2109V55.384H14.1349V63.172H15.2629ZM19.7598 63.172V64H15.2598V63.172H17.0478V58H17.9718V63.172H19.7598ZM17.0478 64.96H17.9598V65.968H17.0478V64.96ZM23.5278 57.88C24.8398 57.88 25.4958 58.564 25.4958 59.932V64H19.7598V63.172H24.5718V59.92C24.5718 59.52 24.4678 59.22 24.2598 59.02C24.0518 58.812 23.7398 58.708 23.3238 58.708C22.9638 58.708 22.2518 58.772 21.1878 58.9L20.8518 58.936L20.8158 58.252C22.0238 58.004 22.9278 57.88 23.5278 57.88ZM22.6518 64.96H23.5638V65.968H22.6518V64.96ZM27.2968 55.384H28.2208V64H27.2968V55.384ZM32.3468 57.772C32.6668 57.772 33.0508 57.796 33.4988 57.844C33.9548 57.892 34.3308 57.944 34.6268 58V63.256C34.6268 64.528 34.4668 65.464 34.1468 66.064C33.8348 66.672 33.2908 66.976 32.5148 66.976C32.1468 66.976 31.5428 66.916 30.7028 66.796V65.98C31.4468 66.092 32.0308 66.148 32.4548 66.148C32.7348 66.148 32.9588 66.096 33.1268 65.992C33.3028 65.896 33.4428 65.692 33.5468 65.38C33.6508 65.068 33.7028 64.608 33.7028 64H31.9388C31.0668 64 30.4868 63.724 30.1988 63.172C29.9188 62.62 29.7788 61.904 29.7788 61.024C29.7788 60.28 29.8508 59.676 29.9948 59.212C30.1388 58.74 30.3988 58.384 30.7748 58.144C31.1508 57.896 31.6748 57.772 32.3468 57.772ZM30.7028 61C30.7028 61.64 30.8068 62.164 31.0148 62.572C31.2228 62.972 31.6468 63.172 32.2868 63.172H33.7028V58.684C33.2708 58.628 32.8948 58.6 32.5748 58.6C32.0868 58.6 31.7068 58.692 31.4348 58.876C31.1628 59.052 30.9708 59.316 30.8588 59.668C30.7548 60.012 30.7028 60.456 30.7028 61Z" fill="black"/>
<path fill-rule="evenodd" clip-rule="evenodd" d="M35.8053 47.4842C37.4621 47.4842 38.8053 46.141 38.8053 44.4842V9.60312H30.7487C29.6442 9.60312 28.7487 8.70769 28.7487 7.60312V0.599518H3.5C1.84315 0.599518 0.5 1.94266 0.5 3.59952V44.4842C0.5 46.141 1.84315 47.4842 3.5 47.4842H35.8053ZM32.027 24.6624H11.8643C11.1546 25.2106 11.215 25.518 11.8643 26.0662H32.027C32.6762 25.5179 32.7366 25.2106 32.027 24.6624ZM32.027 31.2625H11.8643C11.18 31.7843 11.023 32.0768 11.8643 32.5986H32.027C32.5869 32.1373 32.7156 31.8586 32.027 31.2625ZM32.027 37.844H6.51384C5.34161 38.5336 5.49265 38.8712 6.51384 39.4275H32.027C32.7292 38.8712 32.8332 38.5336 32.027 37.844Z" fill="#32A1D1"/>
<path d="M38.8053 9.60312V44.4842C38.8053 46.141 37.4621 47.4842 35.8053 47.4842H3.5C1.84315 47.4842 0.5 46.141 0.5 44.4842V3.59952C0.5 1.94266 1.84315 0.599518 3.5 0.599518H28.7487M38.8053 9.60312L28.7487 0.599518M38.8053 9.60312H30.7487C29.6442 9.60312 28.7487 8.70769 28.7487 7.60312V0.599518M11.8643 24.6624H32.027C32.7366 25.2106 32.6762 25.5179 32.027 26.0662H11.8643C11.215 25.518 11.1546 25.2106 11.8643 24.6624ZM11.8643 31.2625H32.027C32.7156 31.8586 32.5869 32.1373 32.027 32.5986H11.8643C11.023 32.0768 11.1801 31.7843 11.8643 31.2625ZM6.51384 37.844H32.027C32.8332 38.5336 32.7292 38.8712 32.027 39.4275H6.51384C5.49265 38.8712 5.34161 38.5336 6.51384 37.844Z" stroke="black" stroke-width="0.5"/>
<path d="M19.1527 12.634C19.1527 16.3681 16.089 19.4049 12.2977 19.4049C8.50633 19.4049 5.44269 16.3681 5.44269 12.634C5.44269 8.89999 8.50633 5.86316 12.2977 5.86316C16.089 5.86316 19.1527 8.89999 19.1527 12.634Z" fill="#C8E6F3" stroke="black"/>
<path d="M10.0113 9.42545L7.65779 15.9049H6.69588L9.40584 8.79556H10.026L10.0113 9.42545ZM11.984 15.9049L9.62557 9.42545L9.61092 8.79556H10.231L12.9508 15.9049H11.984ZM11.8619 13.2731V14.0446H7.86775V13.2731H11.8619ZM18.3316 12.0915V12.9411H13.4586V12.0915H18.3316ZM16.3492 10.0163V15.192H15.4459V10.0163H16.3492Z" fill="black"/>
<path d="M10.0113 9.42545L10.1053 9.45959L10.1109 9.44417L10.1113 9.42777L10.0113 9.42545ZM7.65779 15.9049V16.0049H7.72786L7.75179 15.9391L7.65779 15.9049ZM6.69588 15.9049L6.60244 15.8693L6.55074 16.0049H6.69588V15.9049ZM9.40584 8.79556V8.69556H9.33694L9.3124 8.75994L9.40584 8.79556ZM10.026 8.79556L10.1259 8.79789L10.1283 8.69556H10.026V8.79556ZM11.984 15.9049L11.89 15.9391L11.9139 16.0049H11.984V15.9049ZM9.62557 9.42545L9.52559 9.42777L9.52598 9.4442L9.5316 9.45965L9.62557 9.42545ZM9.61092 8.79556V8.69556H9.50857L9.51095 8.79789L9.61092 8.79556ZM10.231 8.79556L10.3244 8.75983L10.2998 8.69556H10.231V8.79556ZM12.9508 15.9049V16.0049H13.0961L13.0442 15.8692L12.9508 15.9049ZM11.8619 13.2731H11.9619V13.1731H11.8619V13.2731ZM11.8619 14.0446V14.1446H11.9619V14.0446H11.8619ZM7.86775 14.0446H7.76775V14.1446H7.86775V14.0446ZM7.86775 13.2731V13.1731H7.76775V13.2731H7.86775ZM9.91732 9.39131L7.5638 15.8708L7.75179 15.9391L10.1053 9.45959L9.91732 9.39131ZM7.65779 15.8049H6.69588V16.0049H7.65779V15.8049ZM6.78932 15.9406L9.49928 8.83118L9.3124 8.75994L6.60244 15.8693L6.78932 15.9406ZM9.40584 8.89556H10.026V8.69556H9.40584V8.89556ZM9.92598 8.79324L9.91134 9.42312L10.1113 9.42777L10.1259 8.79789L9.92598 8.79324ZM12.0779 15.8707L9.71954 9.39124L9.5316 9.45965L11.89 15.9391L12.0779 15.8707ZM9.72554 9.42312L9.71089 8.79324L9.51095 8.79789L9.52559 9.42777L9.72554 9.42312ZM9.61092 8.89556H10.231V8.69556H9.61092V8.89556ZM10.1376 8.83129L12.8574 15.9407L13.0442 15.8692L10.3244 8.75983L10.1376 8.83129ZM12.9508 15.8049H11.984V16.0049H12.9508V15.8049ZM11.7619 13.2731V14.0446H11.9619V13.2731H11.7619ZM11.8619 13.9446H7.86775V14.1446H11.8619V13.9446ZM7.96775 14.0446V13.2731H7.76775V14.0446H7.96775ZM7.86775 13.3731H11.8619V13.1731H7.86775V13.3731ZM18.3316 12.0915H18.4316V11.9915H18.3316V12.0915ZM18.3316 12.9411V13.0411H18.4316V12.9411H18.3316ZM13.4586 12.9411H13.3586V13.0411H13.4586V12.9411ZM13.4586 12.0915V11.9915H13.3586V12.0915H13.4586ZM16.3492 10.0163H16.4492V9.91627H16.3492V10.0163ZM16.3492 15.192V15.292H16.4492V15.192H16.3492ZM15.4459 15.192H15.3459V15.292H15.4459V15.192ZM15.4459 10.0163V9.91627H15.3459V10.0163H15.4459ZM18.2316 12.0915V12.9411H18.4316V12.0915H18.2316ZM18.3316 12.8411H13.4586V13.0411H18.3316V12.8411ZM13.5586 12.9411V12.0915H13.3586V12.9411H13.5586ZM13.4586 12.1915H18.3316V11.9915H13.4586V12.1915ZM16.2492 10.0163V15.192H16.4492V10.0163H16.2492ZM16.3492 15.092H15.4459V15.292H16.3492V15.092ZM15.5459 15.192V10.0163H15.3459V15.192H15.5459ZM15.4459 10.1163H16.3492V9.91627H15.4459V10.1163Z" fill="black"/>
</svg>
