<svg width="71" height="77" viewBox="0 0 71 77" fill="none" xmlns="http://www.w3.org/2000/svg">
<g filter="url(#filter0_d_103_15)">
<path d="M10.7773 65H9.27727C9.22927 66.008 9.04127 66.756 8.71327 67.244C8.39327 67.732 7.88527 67.976 7.18927 67.976C6.82127 67.976 6.21727 67.916 5.37727 67.796V66.98C6.12127 67.092 6.70527 67.148 7.12927 67.148C7.40927 67.148 7.63327 67.096 7.80127 66.992C7.97727 66.896 8.11727 66.692 8.22127 66.38C8.32527 66.068 8.37727 65.608 8.37727 65H6.61327C5.74127 65 5.16127 64.724 4.87327 64.172C4.59327 63.62 4.45327 62.904 4.45327 62.024C4.45327 61.28 4.52527 60.676 4.66927 60.212C4.81327 59.74 5.07327 59.384 5.44927 59.144C5.82527 58.896 6.34927 58.772 7.02127 58.772C7.34127 58.772 7.72527 58.796 8.17327 58.844C8.62927 58.892 9.00527 58.944 9.30127 59V64.172H10.7773V65ZM5.37727 62C5.37727 62.64 5.48127 63.164 5.68927 63.572C5.89727 63.972 6.32127 64.172 6.96127 64.172H8.37727V59.684C7.94527 59.628 7.56927 59.6 7.24927 59.6C6.76127 59.6 6.38127 59.692 6.10927 59.876C5.83727 60.052 5.64527 60.316 5.53327 60.668C5.42927 61.012 5.37727 61.456 5.37727 62ZM13.4939 59V65H10.7819V64.172H12.5699V59H13.4939ZM11.8139 65.96H12.7259V66.968H11.8139V65.96ZM13.3139 65.96H14.2259V66.968H13.3139V65.96ZM20.8818 64.172V65H14.9298V64.172H18.8298V62.78C18.8298 61.596 18.5978 60.768 18.1338 60.296C17.6778 59.816 17.1418 59.576 16.5258 59.576H15.5538L15.4938 58.892C15.5738 58.86 15.7338 58.828 15.9738 58.796C16.2218 58.764 16.4578 58.748 16.6818 58.748C17.5538 58.748 18.2818 59.064 18.8658 59.696C19.4578 60.32 19.7538 61.34 19.7538 62.756V64.172H20.8818ZM25.3834 64.172V65H20.8834V64.172H22.6714V59H23.5954V64.172H25.3834ZM21.9154 65.96H22.8274V66.968H21.9154V65.96ZM23.4154 65.96H24.3274V66.968H23.4154V65.96ZM32.6554 64.172V65H25.3834V64.172H27.0874C26.8714 63.748 26.7634 63.072 26.7634 62.144C26.7634 61.32 26.8474 60.684 27.0154 60.236C27.1914 59.788 27.4794 59.472 27.8794 59.288C28.2874 59.104 28.8634 59.012 29.6074 59.012C30.2154 59.012 30.7674 59.04 31.2634 59.096L31.5994 59.132V64.172H32.6554ZM27.6754 62.12C27.6754 63.136 27.8234 63.82 28.1194 64.172H30.6754V59.864C30.1314 59.824 29.7474 59.804 29.5234 59.804C29.0194 59.804 28.6354 59.88 28.3714 60.032C28.1074 60.184 27.9234 60.424 27.8194 60.752C27.7234 61.08 27.6754 61.536 27.6754 62.12ZM28.7074 56.876H29.6194V57.884H28.7074V56.876ZM35.0608 56.384V65H32.6608V64.172H34.1368V56.384H35.0608ZM39.2732 64.172V65H37.2212V56.384H38.1452V64.172H39.2732ZM41.9821 59V65H39.2701V64.172H41.0581V59H41.9821ZM41.0581 65.96H41.9701V66.968H41.0581V65.96ZM48.6468 64.52C48.1108 64.52 47.7028 64.648 47.4228 64.904C47.1428 65.16 47.0028 65.572 47.0028 66.14C47.0028 66.732 47.1668 67.184 47.4948 67.496C47.8228 67.816 48.3268 67.976 49.0068 67.976C49.5828 67.976 50.3228 67.888 51.2268 67.712L51.3348 68.444C50.3108 68.676 49.4708 68.792 48.8148 68.792C47.9108 68.792 47.2228 68.56 46.7508 68.096C46.2868 67.632 46.0548 66.964 46.0548 66.092C46.0548 64.492 46.8748 63.692 48.5148 63.692C48.9468 63.692 49.3468 63.744 49.7148 63.848C50.0828 63.944 50.3668 64.052 50.5668 64.172V60.92C50.5668 60.52 50.4628 60.22 50.2548 60.02C50.0468 59.812 49.7348 59.708 49.3188 59.708C48.9588 59.708 48.2468 59.772 47.1828 59.9L46.8468 59.936L46.8108 59.252C48.0188 59.004 48.9228 58.88 49.5228 58.88C50.8348 58.88 51.4908 59.564 51.4908 60.932V65H50.5668C50.3428 64.872 50.0548 64.76 49.7028 64.664C49.3588 64.568 49.0068 64.52 48.6468 64.52ZM57.0556 65H55.5556V65.132C55.5556 67.036 54.8956 67.988 53.5756 67.988C53.4476 67.988 53.3276 67.984 53.2156 67.976C53.1116 67.968 53.0196 67.96 52.9396 67.952L52.6876 67.928V67.112C53.0876 67.144 53.3396 67.16 53.4436 67.16C53.8436 67.16 54.1396 67 54.3316 66.68C54.5316 66.368 54.6316 65.928 54.6316 65.36V59.012H55.5556V64.172H57.0556V65ZM65.7232 59C65.8272 59.456 65.9152 59.94 65.9872 60.452C66.0672 60.964 66.1072 61.368 66.1072 61.664V65H63.8752C63.3872 65 62.9432 64.832 62.5432 64.496C62.2552 64.832 61.8752 65 61.4032 65H57.0592V64.172H59.0032V59.6H59.9272V64.172H61.1152C61.4832 64.172 61.7472 64.016 61.9072 63.704C62.0752 63.384 62.1592 62.984 62.1592 62.504V59.6H63.0832V62.492C63.0832 62.98 63.0272 63.404 62.9152 63.764C63.0352 63.868 63.1872 63.964 63.3712 64.052C63.5552 64.132 63.7392 64.172 63.9232 64.172H65.1832V61.568C65.1832 61.264 65.1592 60.884 65.1112 60.428C65.0712 59.964 65.0232 59.5 64.9672 59.036L65.7232 59ZM62.1592 55.412H63.0592V56.384H62.1592V55.412ZM61.4032 56.876H62.3152V57.884H61.4032V56.876ZM62.9032 56.876H63.8152V57.884H62.9032V56.876Z" fill="black"/>
<rect x="10.9615" y="0.5" width="49" height="49" rx="9.5" fill="#32A1D1" stroke="black"/>
<path d="M27.3683 9.77362L48.3914 24.4119L27.3683 37.9602V9.77362Z" fill="white" stroke="black"/>
</g>
<defs>
<filter id="filter0_d_103_15" x="0.453278" y="0" width="69.6539" height="76.792" filterUnits="userSpaceOnUse" color-interpolation-filters="sRGB">
<feFlood flood-opacity="0" result="BackgroundImageFix"/>
<feColorMatrix in="SourceAlpha" type="matrix" values="0 0 0 0 0 0 0 0 0 0 0 0 0 0 0 0 0 0 127 0" result="hardAlpha"/>
<feOffset dy="4"/>
<feGaussianBlur stdDeviation="2"/>
<feComposite in2="hardAlpha" operator="out"/>
<feColorMatrix type="matrix" values="0 0 0 0 0 0 0 0 0 0 0 0 0 0 0 0 0 0 0.25 0"/>
<feBlend mode="normal" in2="BackgroundImageFix" result="effect1_dropShadow_103_15"/>
<feBlend mode="normal" in="SourceGraphic" in2="effect1_dropShadow_103_15" result="shape"/>
</filter>
</defs>
</svg>
