<svg width="87" height="71" viewBox="0 0 87 71" fill="none" xmlns="http://www.w3.org/2000/svg">
<g filter="url(#filter0_d_103_37)">
<path d="M7.22047 62.2045C6.63647 62.2045 6.10447 62.0965 5.62447 61.8805C5.14447 61.6645 4.76447 61.3645 4.48447 60.9805C4.20447 60.5965 4.06447 60.1565 4.06447 59.6605C4.06447 59.3565 4.11247 58.8445 4.20847 58.1245C4.30447 57.4045 4.41647 56.6805 4.54447 55.9525L5.43247 56.0005C5.31247 56.7845 5.20847 57.5245 5.12047 58.2205C5.03247 58.9085 4.98847 59.3685 4.98847 59.6005C4.98847 59.9445 5.08447 60.2525 5.27647 60.5245C5.47647 60.7965 5.74447 61.0045 6.08047 61.1485C6.41647 61.3005 6.78847 61.3765 7.19647 61.3765C7.78847 61.3765 8.28847 61.2205 8.69647 60.9085C9.11247 60.6045 9.32047 60.1685 9.32047 59.6005V50.6125H10.2445V59.7085C10.2445 60.2445 10.1045 60.7005 9.82447 61.0765C9.55247 61.4525 9.18447 61.7325 8.72047 61.9165C8.26447 62.1085 7.76447 62.2045 7.22047 62.2045ZM12.3988 50.6125H13.3228V59.2285H12.3988V50.6125ZM21.2049 59.2285H19.7049C19.6569 60.2365 19.4689 60.9845 19.1409 61.4725C18.8209 61.9605 18.3129 62.2045 17.6169 62.2045C17.2489 62.2045 16.6449 62.1445 15.8049 62.0245V61.2085C16.5489 61.3205 17.1329 61.3765 17.5569 61.3765C17.8369 61.3765 18.0609 61.3245 18.2289 61.2205C18.4049 61.1245 18.5449 60.9205 18.6489 60.6085C18.7529 60.2965 18.8049 59.8365 18.8049 59.2285H17.0409C16.1689 59.2285 15.5889 58.9525 15.3009 58.4005C15.0209 57.8485 14.8809 57.1325 14.8809 56.2525C14.8809 55.5085 14.9529 54.9045 15.0969 54.4405C15.2409 53.9685 15.5009 53.6125 15.8769 53.3725C16.2529 53.1245 16.7769 53.0005 17.4489 53.0005C17.7689 53.0005 18.1529 53.0245 18.6009 53.0725C19.0569 53.1205 19.4329 53.1725 19.7289 53.2285V58.4005H21.2049V59.2285ZM15.8049 56.2285C15.8049 56.8685 15.9089 57.3925 16.1169 57.8005C16.3249 58.2005 16.7489 58.4005 17.3889 58.4005H18.8049V53.9125C18.3729 53.8565 17.9969 53.8285 17.6769 53.8285C17.1889 53.8285 16.8089 53.9205 16.5369 54.1045C16.2649 54.2805 16.0729 54.5445 15.9609 54.8965C15.8569 55.2405 15.8049 55.6845 15.8049 56.2285ZM18.8649 51.5725L16.4169 52.0525L16.3089 51.6685L16.8849 51.5125C16.6129 51.2885 16.4769 51.0045 16.4769 50.6605C16.4769 50.3645 16.5809 50.1125 16.7889 49.9045C16.9969 49.6885 17.2649 49.5805 17.5929 49.5805C17.7769 49.5805 17.9489 49.6125 18.1089 49.6765C18.2689 49.7405 18.3889 49.8045 18.4689 49.8685L18.3489 50.3245C18.3009 50.2845 18.2249 50.2445 18.1209 50.2045C18.0249 50.1645 17.9169 50.1445 17.7969 50.1445C17.5889 50.1445 17.4169 50.2125 17.2809 50.3485C17.1529 50.4845 17.0889 50.6445 17.0889 50.8285C17.0889 51.0605 17.1809 51.2445 17.3649 51.3805L18.7329 51.0205L18.8649 51.5725ZM29.8735 53.2285C29.9775 53.6845 30.0655 54.1685 30.1375 54.6805C30.2175 55.1925 30.2575 55.5965 30.2575 55.8925V59.2285H28.0255C27.5375 59.2285 27.0935 59.0605 26.6935 58.7245C26.4055 59.0605 26.0255 59.2285 25.5535 59.2285H21.2095V58.4005H23.1535V53.8285H24.0775V58.4005H25.2655C25.6335 58.4005 25.8975 58.2445 26.0575 57.9325C26.2255 57.6125 26.3095 57.2125 26.3095 56.7325V53.8285H27.2335V56.7205C27.2335 57.2085 27.1775 57.6325 27.0655 57.9925C27.1855 58.0965 27.3375 58.1925 27.5215 58.2805C27.7055 58.3605 27.8895 58.4005 28.0735 58.4005H29.3335V55.7965C29.3335 55.4925 29.3095 55.1125 29.2615 54.6565C29.2215 54.1925 29.1735 53.7285 29.1175 53.2645L29.8735 53.2285ZM41.7768 59.2285H40.3968V59.7085C40.3968 60.2445 40.2568 60.7005 39.9768 61.0765C39.7048 61.4525 39.3368 61.7325 38.8728 61.9165C38.4168 62.1085 37.9168 62.2045 37.3728 62.2045C36.7888 62.2045 36.2568 62.0965 35.7768 61.8805C35.2968 61.6645 34.9168 61.3645 34.6368 60.9805C34.3568 60.5965 34.2168 60.1565 34.2168 59.6605C34.2168 59.3565 34.2648 58.8445 34.3608 58.1245C34.4568 57.4045 34.5688 56.6805 34.6968 55.9525L35.5848 56.0005C35.4648 56.7845 35.3608 57.5245 35.2728 58.2205C35.1848 58.9085 35.1408 59.3685 35.1408 59.6005C35.1408 59.9445 35.2368 60.2525 35.4288 60.5245C35.6288 60.7965 35.8968 61.0045 36.2328 61.1485C36.5688 61.3005 36.9408 61.3765 37.3488 61.3765C37.9408 61.3765 38.4408 61.2205 38.8488 60.9085C39.2648 60.6045 39.4728 60.1685 39.4728 59.6005V50.6125H40.3968V58.4005H41.7768V59.2285ZM49.8039 58.4005V59.2285H41.7759V58.4005H47.1639V56.6605C47.1639 56.1805 47.0719 55.7645 46.8879 55.4125C46.7119 55.0605 46.4159 54.8805 45.9999 54.8725H42.7479L42.1359 54.0445L42.7599 52.8205C42.9039 52.5325 43.1199 52.1845 43.4079 51.7765C43.7039 51.3605 43.9999 50.9725 44.2959 50.6125L44.9559 50.9845C44.5879 51.5365 44.3119 51.9645 44.1279 52.2685C43.9439 52.5645 43.7759 52.8605 43.6239 53.1565L43.1679 54.0445H46.0719C46.7679 54.0445 47.2759 54.2885 47.5959 54.7765C47.9239 55.2645 48.0879 55.8965 48.0879 56.6725V58.4005H49.8039ZM52.2032 50.6125V59.2285H49.8032V58.4005H51.2792V50.6125H52.2032ZM63.2284 58.4005V59.2285H59.2324C58.5204 59.2285 57.9604 59.1285 57.5524 58.9285C57.1444 58.7285 56.8484 58.4125 56.6644 57.9805C56.4884 57.5405 56.4004 56.9445 56.4004 56.1925C56.4004 55.4485 56.4844 54.8525 56.6524 54.4045C56.8284 53.9565 57.1124 53.6285 57.5044 53.4205C57.9044 53.2125 58.4404 53.1085 59.1124 53.1085C59.4084 53.1085 59.8604 53.1245 60.4684 53.1565C61.0844 53.1805 61.5484 53.2085 61.8604 53.2405V58.4005H63.2284ZM57.3244 56.1685C57.3244 56.7205 57.3884 57.1565 57.5164 57.4765C57.6524 57.7965 57.8684 58.0325 58.1644 58.1845C58.4604 58.3285 58.8684 58.4005 59.3884 58.4005H60.9364V54.0205C60.2324 53.9725 59.6884 53.9485 59.3044 53.9485C58.5764 53.9485 58.0644 54.1205 57.7684 54.4645C57.4724 54.8085 57.3244 55.3765 57.3244 56.1685ZM58.2604 51.1045H59.1724V52.1125H58.2604V51.1045ZM59.7604 51.1045H60.6724V52.1125H59.7604V51.1045ZM65.9449 53.2285V59.2285H63.2329V58.4005H65.0209V53.2285H65.9449ZM65.0209 60.1885H65.9329V61.1965H65.0209V60.1885ZM73.7049 59.2285H72.2049C72.1569 60.2365 71.9689 60.9845 71.6409 61.4725C71.3209 61.9605 70.8129 62.2045 70.1169 62.2045C69.7489 62.2045 69.1449 62.1445 68.3049 62.0245V61.2085C69.0489 61.3205 69.6329 61.3765 70.0569 61.3765C70.3369 61.3765 70.5609 61.3245 70.7289 61.2205C70.9049 61.1245 71.0449 60.9205 71.1489 60.6085C71.2529 60.2965 71.3049 59.8365 71.3049 59.2285H69.5409C68.6689 59.2285 68.0889 58.9525 67.8009 58.4005C67.5209 57.8485 67.3809 57.1325 67.3809 56.2525C67.3809 55.5085 67.4529 54.9045 67.5969 54.4405C67.7409 53.9685 68.0009 53.6125 68.3769 53.3725C68.7529 53.1245 69.2769 53.0005 69.9489 53.0005C70.2689 53.0005 70.6529 53.0245 71.1009 53.0725C71.5569 53.1205 71.9329 53.1725 72.2289 53.2285V58.4005H73.7049V59.2285ZM68.3049 56.2285C68.3049 56.8685 68.4089 57.3925 68.6169 57.8005C68.8249 58.2005 69.2489 58.4005 69.8889 58.4005H71.3049V53.9125C70.8729 53.8565 70.4969 53.8285 70.1769 53.8285C69.6889 53.8285 69.3089 53.9205 69.0369 54.1045C68.7649 54.2805 68.5729 54.5445 68.4609 54.8965C68.3569 55.2405 68.3049 55.6845 68.3049 56.2285ZM77.4775 53.1085C78.7895 53.1085 79.4455 53.7925 79.4455 55.1605V59.2285H73.7095V58.4005H78.5215V55.1485C78.5215 54.7485 78.4175 54.4485 78.2095 54.2485C78.0015 54.0405 77.6895 53.9365 77.2735 53.9365C76.9135 53.9365 76.2015 54.0005 75.1375 54.1285L74.8015 54.1645L74.7655 53.4805C75.9735 53.2325 76.8775 53.1085 77.4775 53.1085ZM76.6015 60.1885H77.5135V61.1965H76.6015V60.1885ZM81.2465 51.6445H82.1705V59.2285H81.2465V51.6445ZM82.9385 50.7205L80.4905 51.2005L80.3825 50.8165L80.9585 50.6605C80.6865 50.4365 80.5505 50.1525 80.5505 49.8085C80.5505 49.5125 80.6545 49.2605 80.8625 49.0525C81.0705 48.8365 81.3385 48.7285 81.6665 48.7285C81.8505 48.7285 82.0225 48.7605 82.1825 48.8245C82.3425 48.8885 82.4625 48.9525 82.5425 49.0165L82.4225 49.4725C82.3745 49.4325 82.2985 49.3925 82.1945 49.3525C82.0985 49.3125 81.9905 49.2925 81.8705 49.2925C81.6625 49.2925 81.4905 49.3605 81.3545 49.4965C81.2265 49.6325 81.1625 49.7925 81.1625 49.9765C81.1625 50.2085 81.2545 50.3925 81.4385 50.5285L82.8065 50.1685L82.9385 50.7205Z" fill="black"/>
<path d="M65.7365 21.0446C65.7365 32.3141 56.2674 41.4797 44.5492 41.4797C32.831 41.4797 23.3619 32.3141 23.3619 21.0446C23.3619 9.77504 32.831 0.609436 44.5492 0.609436C56.2674 0.609436 65.7365 9.77504 65.7365 21.0446Z" fill="#32A1D1" stroke="black"/>
<path d="M42.2733 29.2695C41.84 28.4028 41.6233 27.3861 41.6233 26.2195C41.6233 25.1528 41.9733 24.1361 42.6733 23.1695C43.4066 22.2028 44.6733 20.9361 46.4733 19.3695C47.7066 18.3028 48.6066 17.4528 49.1733 16.8195C49.74 16.1528 50.14 15.4861 50.3733 14.8195C50.6066 14.1195 50.7233 13.2528 50.7233 12.2195C50.7233 10.6528 50.19 9.50279 49.1233 8.76946C48.0566 8.00279 46.3733 7.61946 44.0733 7.61946C42.64 7.61946 40.0566 8.00279 36.3233 8.76946L36.0733 5.71946C39.4066 4.71946 42.19 4.21946 44.4233 4.21946C47.89 4.21946 50.44 4.85279 52.0733 6.11946C53.7067 7.38612 54.5233 9.41946 54.5233 12.2195C54.5233 13.7195 54.4067 14.9195 54.1733 15.8195C53.94 16.7195 53.5066 17.5528 52.8733 18.3195C52.2733 19.0861 51.3567 19.9861 50.1233 21.0195C48.29 22.5528 47.04 23.7528 46.3733 24.6195C45.74 25.4861 45.4233 26.4528 45.4233 27.5195V29.2695H42.2733ZM41.7233 33.6695H45.8233V39.2695H41.7233V33.6695Z" fill="white"/>
<path d="M42.2733 29.2695L41.3789 29.7167L41.6553 30.2695H42.2733V29.2695ZM42.6733 23.1695L41.8766 22.5651L41.8699 22.5739L41.8634 22.5829L42.6733 23.1695ZM46.4733 19.3695L45.8192 18.6131L45.8168 18.6152L46.4733 19.3695ZM49.1733 16.8195L49.9186 17.4863L49.927 17.4768L49.9353 17.4671L49.1733 16.8195ZM50.3733 14.8195L51.3172 15.1498L51.3196 15.1428L51.322 15.1357L50.3733 14.8195ZM49.1233 8.76946L48.5397 9.58147L48.5482 9.58758L48.5568 9.5935L49.1233 8.76946ZM36.3233 8.76946L35.3267 8.85115L35.4189 9.97606L36.5245 9.74902L36.3233 8.76946ZM36.0733 5.71946L35.786 4.76163L35.0105 4.99426L35.0767 5.80115L36.0733 5.71946ZM52.0733 6.11946L52.6861 5.32924V5.32924L52.0733 6.11946ZM54.1733 15.8195L53.2053 15.5685V15.5685L54.1733 15.8195ZM52.8733 18.3195L52.1024 17.6826L52.0939 17.6928L52.0858 17.7031L52.8733 18.3195ZM50.1233 21.0195L50.7649 21.7865L50.7655 21.786L50.1233 21.0195ZM46.3733 24.6195L45.5807 24.0097L45.5732 24.0195L45.5659 24.0294L46.3733 24.6195ZM45.4233 29.2695V30.2695H46.4233V29.2695H45.4233ZM41.7233 33.6695V32.6695H40.7233V33.6695H41.7233ZM45.8233 33.6695H46.8233V32.6695H45.8233V33.6695ZM45.8233 39.2695V40.2695H46.8233V39.2695H45.8233ZM41.7233 39.2695H40.7233V40.2695H41.7233V39.2695ZM43.1677 28.8222C42.8166 28.12 42.6233 27.2622 42.6233 26.2195H40.6233C40.6233 27.5101 40.8634 28.6856 41.3789 29.7167L43.1677 28.8222ZM42.6233 26.2195C42.6233 25.3882 42.8914 24.5732 43.4833 23.756L41.8634 22.5829C41.0552 23.699 40.6233 24.9174 40.6233 26.2195H42.6233ZM43.47 23.7738C44.1391 22.8919 45.3421 21.6798 47.1298 20.1238L45.8168 18.6152C44.0046 20.1925 42.6742 21.5137 41.8766 22.5651L43.47 23.7738ZM47.1275 20.1258C48.3695 19.0516 49.3083 18.1683 49.9186 17.4863L48.4281 16.1527C47.905 16.7373 47.0438 17.5539 45.8192 18.6131L47.1275 20.1258ZM49.9353 17.4671C50.5632 16.7283 51.0348 15.9566 51.3172 15.1498L49.4295 14.4891C49.2452 15.0157 48.9168 15.5772 48.4114 16.1718L49.9353 17.4671ZM51.322 15.1357C51.5999 14.3019 51.7233 13.3207 51.7233 12.2195H49.7233C49.7233 13.1849 49.6134 13.937 49.4246 14.5032L51.322 15.1357ZM51.7233 12.2195C51.7233 10.4024 51.087 8.90594 49.6898 7.94542L48.5568 9.5935C49.293 10.0996 49.7233 10.9032 49.7233 12.2195H51.7233ZM49.707 7.95744C48.3842 7.0067 46.4433 6.61946 44.0733 6.61946V8.61946C46.3033 8.61946 47.7291 8.99889 48.5397 9.58147L49.707 7.95744ZM44.0733 6.61946C42.5247 6.61946 39.8476 7.02486 36.1222 7.7899L36.5245 9.74902C40.2657 8.98072 42.7553 8.61946 44.0733 8.61946V6.61946ZM37.32 8.68776L37.07 5.63776L35.0767 5.80115L35.3267 8.85115L37.32 8.68776ZM36.3607 6.67728C39.6466 5.6915 42.3257 5.21946 44.4233 5.21946V3.21946C42.0542 3.21946 39.1667 3.74741 35.786 4.76163L36.3607 6.67728ZM44.4233 5.21946C47.805 5.21946 50.0864 5.84409 51.4605 6.90968L52.6861 5.32924C50.7935 3.86149 47.975 3.21946 44.4233 3.21946V5.21946ZM51.4605 6.90968C52.7697 7.925 53.5233 9.61105 53.5233 12.2195H55.5233C55.5233 9.22786 54.6436 6.84725 52.6861 5.32924L51.4605 6.90968ZM53.5233 12.2195C53.5233 13.6797 53.4085 14.7848 53.2053 15.5685L55.1413 16.0704C55.4048 15.0541 55.5233 13.7592 55.5233 12.2195H53.5233ZM53.2053 15.5685C53.0112 16.3173 52.6492 17.0206 52.1024 17.6826L53.6443 18.9563C54.3641 18.085 54.8688 17.1216 55.1413 16.0704L53.2053 15.5685ZM52.0858 17.7031C51.5476 18.3909 50.6907 19.2395 49.4811 20.2529L50.7655 21.786C52.0226 20.7328 52.999 19.7814 53.6608 18.9358L52.0858 17.7031ZM49.4818 20.2524C47.6423 21.7909 46.319 23.05 45.5807 24.0097L47.1659 25.2292C47.761 24.4556 48.9377 23.3147 50.7649 21.7865L49.4818 20.2524ZM45.5659 24.0294C44.8083 25.0662 44.4233 26.2392 44.4233 27.5195H46.4233C46.4233 26.6664 46.6717 25.906 47.1807 25.2095L45.5659 24.0294ZM44.4233 27.5195V29.2695H46.4233V27.5195H44.4233ZM45.4233 28.2695H42.2733V30.2695H45.4233V28.2695ZM41.7233 34.6695H45.8233V32.6695H41.7233V34.6695ZM44.8233 33.6695V39.2695H46.8233V33.6695H44.8233ZM45.8233 38.2695H41.7233V40.2695H45.8233V38.2695ZM42.7233 39.2695V33.6695H40.7233V39.2695H42.7233Z" fill="black"/>
</g>
<defs>
<filter id="filter0_d_103_37" x="0.0644531" y="0.109436" width="86.874" height="70.0951" filterUnits="userSpaceOnUse" color-interpolation-filters="sRGB">
<feFlood flood-opacity="0" result="BackgroundImageFix"/>
<feColorMatrix in="SourceAlpha" type="matrix" values="0 0 0 0 0 0 0 0 0 0 0 0 0 0 0 0 0 0 127 0" result="hardAlpha"/>
<feOffset dy="4"/>
<feGaussianBlur stdDeviation="2"/>
<feComposite in2="hardAlpha" operator="out"/>
<feColorMatrix type="matrix" values="0 0 0 0 0 0 0 0 0 0 0 0 0 0 0 0 0 0 0.25 0"/>
<feBlend mode="normal" in2="BackgroundImageFix" result="effect1_dropShadow_103_37"/>
<feBlend mode="normal" in="SourceGraphic" in2="effect1_dropShadow_103_37" result="shape"/>
</filter>
</defs>
</svg>
