<svg width="64" height="77" viewBox="0 0 64 77" fill="none" xmlns="http://www.w3.org/2000/svg">
<g filter="url(#filter0_d_103_22)">
<path d="M10.2848 64.1005L5.11285 65.2285L4.92085 64.5085L6.13285 64.1965C5.85285 63.9245 5.64085 63.6245 5.49685 63.2965C5.36085 62.9605 5.29285 62.6125 5.29285 62.2525C5.29285 61.8205 5.39285 61.4125 5.59285 61.0285C5.80085 60.6365 6.09285 60.3245 6.46885 60.0925C6.84485 59.8525 7.28085 59.7325 7.77685 59.7325C8.28885 59.7325 8.82885 59.8605 9.39685 60.1165L9.22885 60.8845C8.86085 60.7245 8.50085 60.6445 8.14885 60.6445C7.78085 60.6445 7.45685 60.7325 7.17685 60.9085C6.90485 61.0765 6.69285 61.3005 6.54085 61.5805C6.39685 61.8605 6.32485 62.1605 6.32485 62.4805C6.32485 62.7685 6.38485 63.0405 6.50485 63.2965C6.62485 63.5525 6.80485 63.7765 7.04485 63.9685L10.0688 63.2005L10.2848 64.1005ZM11.8819 56.6125H12.8059V65.2285H11.8819V56.6125ZM16.1159 58.9765C16.9879 58.9765 17.7159 59.2925 18.2999 59.9245C18.8919 60.5485 19.1879 61.5685 19.1879 62.9845V65.2285H14.3639V64.4005H18.2639V63.0085C18.2639 61.8245 18.0319 60.9965 17.5679 60.5245C17.1119 60.0445 16.5759 59.8045 15.9599 59.8045H14.9879L14.9279 59.1205C15.0079 59.0885 15.1679 59.0565 15.4079 59.0245C15.6559 58.9925 15.8919 58.9765 16.1159 58.9765ZM25.9462 56.6125V65.2285H20.2702V64.4005H21.8062V58.2325H22.7302V64.4005H25.0342V56.6125H25.9462ZM23.3302 57.2005L20.8822 57.6805L20.7742 57.2965L21.3502 57.1405C21.0782 56.9165 20.9422 56.6325 20.9422 56.2885C20.9422 55.9925 21.0462 55.7405 21.2542 55.5325C21.4622 55.3165 21.7302 55.2085 22.0582 55.2085C22.2422 55.2085 22.4142 55.2405 22.5742 55.3045C22.7342 55.3685 22.8542 55.4325 22.9342 55.4965L22.8142 55.9525C22.7662 55.9125 22.6902 55.8725 22.5862 55.8325C22.4902 55.7925 22.3822 55.7725 22.2622 55.7725C22.0542 55.7725 21.8822 55.8405 21.7462 55.9765C21.6182 56.1125 21.5542 56.2725 21.5542 56.4565C21.5542 56.6885 21.6462 56.8725 21.8302 57.0085L23.1982 56.6485L23.3302 57.2005ZM27.9834 56.6125H28.9074V65.2285H27.9834V56.6125ZM37.4702 65.2285H35.9702V65.3605C35.9702 67.2645 35.3102 68.2165 33.9902 68.2165C33.8622 68.2165 33.7422 68.2125 33.6302 68.2045C33.5262 68.1965 33.4342 68.1885 33.3542 68.1805L33.1022 68.1565V67.3405C33.5022 67.3725 33.7542 67.3885 33.8582 67.3885C34.2582 67.3885 34.5542 67.2285 34.7462 66.9085C34.9462 66.5965 35.0462 66.1565 35.0462 65.5885V59.2405H35.9702V64.4005H37.4702V65.2285ZM40.1858 59.2285V65.2285H37.4738V64.4005H39.2618V59.2285H40.1858ZM38.5058 66.1885H39.4178V67.1965H38.5058V66.1885ZM40.0058 66.1885H40.9178V67.1965H40.0058V66.1885ZM42.5097 68.2165C42.3817 68.2165 42.2617 68.2125 42.1497 68.2045C42.0457 68.1965 41.9537 68.1885 41.8737 68.1805L41.6217 68.1565V67.3405C42.0217 67.3725 42.2737 67.3885 42.3777 67.3885C42.7777 67.3885 43.0737 67.2285 43.2657 66.9085C43.4657 66.5965 43.5657 66.1565 43.5657 65.5885V59.2405H44.4897V65.3605C44.4897 67.2645 43.8297 68.2165 42.5097 68.2165ZM48.469 64.4005V65.2285H46.417V56.6125H47.341V64.4005H48.469ZM55.7379 64.4005V65.2285H48.4659V64.4005H50.1699C49.9539 63.9765 49.8459 63.3005 49.8459 62.3725C49.8459 61.5485 49.9299 60.9125 50.0979 60.4645C50.2739 60.0165 50.5619 59.7005 50.9619 59.5165C51.3699 59.3325 51.9459 59.2405 52.6899 59.2405C53.2979 59.2405 53.8499 59.2685 54.3459 59.3245L54.6819 59.3605V64.4005H55.7379ZM50.7579 62.3485C50.7579 63.3645 50.9059 64.0485 51.2019 64.4005H53.7579V60.0925C53.2139 60.0525 52.8299 60.0325 52.6059 60.0325C52.1019 60.0325 51.7179 60.1085 51.4539 60.2605C51.1899 60.4125 51.0059 60.6525 50.9019 60.9805C50.8059 61.3085 50.7579 61.7645 50.7579 62.3485ZM51.0459 57.1045H51.9579V58.1125H51.0459V57.1045ZM52.5459 57.1045H53.4579V58.1125H52.5459V57.1045ZM58.4553 59.2285V65.2285H55.7433V64.4005H57.5313V59.2285H58.4553ZM56.7873 57.1045H57.6993V58.1125H56.7873V57.1045ZM58.2873 57.1045H59.1993V58.1125H58.2873V57.1045Z" fill="black"/>
<path d="M12.723 33.9585V48.9868H21.1976V33.9585H12.723Z" fill="#32A1D1"/>
<path d="M28.5422 26.8398V48.9868H37.2429V26.8398H28.5422Z" fill="#32A1D1"/>
<path d="M44.3615 14.8624V48.9868H53.1751V14.8624H44.3615Z" fill="#32A1D1"/>
<path d="M12.723 33.9585V48.9868H21.1976V33.9585H12.723Z" stroke="black" stroke-width="2"/>
<path d="M28.5422 26.8398V48.9868H37.2429V26.8398H28.5422Z" stroke="black" stroke-width="2"/>
<path d="M44.3615 14.8624V48.9868H53.1751V14.8624H44.3615Z" stroke="black" stroke-width="2"/>
<path d="M11.689 17.6822C11.3457 16.8934 12.1248 16.1237 12.8865 15.7237L27.5371 8.03068C28.388 7.58391 29.4013 7.57179 30.2626 7.99807L34.079 9.887C34.9499 10.318 35.9756 10.3006 36.8313 9.84016L48.5522 3.53348L50.2127 5.65895L36.8593 13.1176C35.9889 13.6038 34.9339 13.6258 34.0439 13.1763L28.8916 10.5741L14.3332 18.0665C13.5034 18.4935 12.3592 18.6631 11.8156 17.9046C11.7651 17.8342 11.723 17.7604 11.689 17.6822Z" fill="black" stroke="black"/>
<path d="M52.3052 3.80176C52.4533 3.26972 52.1421 2.71831 51.6101 2.57015L42.94 0.155691C42.408 0.00752768 41.8566 0.318721 41.7084 0.850761C41.5602 1.3828 41.8714 1.93421 42.4035 2.08238L50.1102 4.22856L47.964 11.9353C47.8159 12.4673 48.1271 13.0188 48.6591 13.1669C49.1911 13.3151 49.7425 13.0039 49.8907 12.4719L52.3052 3.80176ZM45.1248 8.19037L51.8333 4.40438L50.8503 2.66261L44.1418 6.4486L45.1248 8.19037Z" fill="black"/>
</g>
<defs>
<filter id="filter0_d_103_22" x="0.920837" y="0.118774" width="62.2784" height="76.0977" filterUnits="userSpaceOnUse" color-interpolation-filters="sRGB">
<feFlood flood-opacity="0" result="BackgroundImageFix"/>
<feColorMatrix in="SourceAlpha" type="matrix" values="0 0 0 0 0 0 0 0 0 0 0 0 0 0 0 0 0 0 127 0" result="hardAlpha"/>
<feOffset dy="4"/>
<feGaussianBlur stdDeviation="2"/>
<feComposite in2="hardAlpha" operator="out"/>
<feColorMatrix type="matrix" values="0 0 0 0 0 0 0 0 0 0 0 0 0 0 0 0 0 0 0.25 0"/>
<feBlend mode="normal" in2="BackgroundImageFix" result="effect1_dropShadow_103_22"/>
<feBlend mode="normal" in="SourceGraphic" in2="effect1_dropShadow_103_22" result="shape"/>
</filter>
</defs>
</svg>
