<svg width="46" height="49" viewBox="0 0 46 49" fill="none" xmlns="http://www.w3.org/2000/svg">
<path d="M0.77533 0.886658H22.3963C27.9191 0.886658 32.3963 5.36381 32.3963 10.8867V43.5966H0.77533V0.886658Z" fill="#32A1D1"/>
<path d="M5.80186 13.0898H14.6925C15.4733 14.3682 15.5099 15.0047 14.6925 15.9635H5.80186C5.13868 14.7676 5.00365 14.1233 5.80186 13.0898Z" fill="white"/>
<path d="M21.3679 13.0898H23.8226C25.1529 14.212 24.9279 14.8412 23.8226 15.9635H21.3679C20.5348 14.9861 20.3153 14.3951 21.3679 13.0898Z" fill="white"/>
<path d="M5.80186 20.9925H14.6925C15.6865 22.0914 15.619 22.7075 14.6925 23.8064H5.80186C4.96116 22.6311 4.87877 22.0075 5.80186 20.9925Z" fill="white"/>
<path d="M21.5775 20.9925H23.8226C25.0827 22.1884 24.7406 22.7781 23.8226 23.8064H21.5775C20.6578 22.8547 20.4659 22.2693 21.5775 20.9925Z" fill="white"/>
<path d="M5.80186 28.9252H14.6925C15.679 30.0437 15.4979 30.604 14.6925 31.5595H5.80186C5.21464 30.3926 4.92561 29.7478 5.80186 28.9252Z" fill="white"/>
<path d="M5.80186 13.0898H14.6925C15.4733 14.3682 15.5099 15.0047 14.6925 15.9635H5.80186C5.13868 14.7676 5.00365 14.1233 5.80186 13.0898Z" stroke="black" stroke-width="0.5"/>
<path d="M21.3679 13.0898H23.8226C25.1529 14.212 24.9279 14.8412 23.8226 15.9635H21.3679C20.5348 14.9861 20.3153 14.3951 21.3679 13.0898Z" stroke="black" stroke-width="0.5"/>
<path d="M5.80186 20.9925H14.6925C15.6865 22.0914 15.619 22.7075 14.6925 23.8064H5.80186C4.96116 22.6311 4.87877 22.0075 5.80186 20.9925Z" stroke="black" stroke-width="0.5"/>
<path d="M21.5775 20.9925H23.8226C25.0827 22.1884 24.7406 22.7781 23.8226 23.8064H21.5775C20.6578 22.8547 20.4659 22.2693 21.5775 20.9925Z" stroke="black" stroke-width="0.5"/>
<path d="M5.80186 28.9252H14.6925C15.679 30.0437 15.4979 30.604 14.6925 31.5595H5.80186C5.21464 30.3926 4.92561 29.7478 5.80186 28.9252Z" stroke="black" stroke-width="0.5"/>
<path d="M33.7598 47.4653C39.3372 47.4653 43.8648 42.956 43.8648 37.3858C43.8648 31.8157 39.3372 27.3063 33.7598 27.3063C28.1824 27.3063 23.6549 31.8157 23.6549 37.3858C23.6549 42.956 28.1824 47.4653 33.7598 47.4653Z" fill="white" stroke="black" stroke-width="2.5"/>
<path d="M29.0211 39.1545L31.2109 42.8211L38.6459 34.4694L37.5255 34.062L31.4655 41.0387L29.785 38.4415L29.0211 39.1545Z" fill="black" stroke="black" stroke-width="0.5"/>
<path d="M32.3764 26.0498V9.30246C30.4688 4.46855 29.1424 1.98727 23.0907 0.845856H0.788483V43.7092H24.3343" stroke="black"/>
</svg>
