<svg width="40" height="48" viewBox="0 0 40 48" fill="none" xmlns="http://www.w3.org/2000/svg">
<path fill-rule="evenodd" clip-rule="evenodd" d="M35.8053 47.4842C37.4621 47.4842 38.8053 46.141 38.8053 44.4842V9.60312H30.7487C29.6442 9.60312 28.7487 8.70769 28.7487 7.60312V0.599518H3.5C1.84315 0.599518 0.5 1.94266 0.5 3.59952V44.4842C0.5 46.141 1.84315 47.4842 3.5 47.4842H35.8053ZM32.027 24.6624H11.8643C11.1546 25.2106 11.215 25.518 11.8643 26.0662H32.027C32.6762 25.5179 32.7366 25.2106 32.027 24.6624ZM32.027 31.2625H11.8643C11.18 31.7843 11.023 32.0768 11.8643 32.5986H32.027C32.5869 32.1373 32.7156 31.8586 32.027 31.2625ZM32.027 37.844H6.51384C5.34161 38.5336 5.49265 38.8712 6.51384 39.4275H32.027C32.7292 38.8712 32.8332 38.5336 32.027 37.844Z" fill="#32A1D1"/>
<path d="M38.8053 9.60312V44.4842C38.8053 46.141 37.4621 47.4842 35.8053 47.4842H3.5C1.84315 47.4842 0.5 46.141 0.5 44.4842V3.59952C0.5 1.94266 1.84315 0.599518 3.5 0.599518H28.7487M38.8053 9.60312L28.7487 0.599518M38.8053 9.60312H30.7487C29.6442 9.60312 28.7487 8.70769 28.7487 7.60312V0.599518M11.8643 24.6624H32.027C32.7366 25.2106 32.6762 25.5179 32.027 26.0662H11.8643C11.215 25.518 11.1546 25.2106 11.8643 24.6624ZM11.8643 31.2625H32.027C32.7156 31.8586 32.5869 32.1373 32.027 32.5986H11.8643C11.023 32.0768 11.1801 31.7843 11.8643 31.2625ZM6.51384 37.844H32.027C32.8332 38.5336 32.7292 38.8712 32.027 39.4275H6.51384C5.49265 38.8712 5.34161 38.5336 6.51384 37.844Z" stroke="black" stroke-width="0.5"/>
<path d="M19.1526 12.634C19.1526 16.3681 16.089 19.4049 12.2977 19.4049C8.50632 19.4049 5.44267 16.3681 5.44267 12.634C5.44267 8.89999 8.50632 5.86316 12.2977 5.86316C16.089 5.86316 19.1526 8.89999 19.1526 12.634Z" fill="#C8E6F3" stroke="black"/>
<path d="M11.3053 14.0495H8.32674L7.65779 15.9049H6.691L9.40584 8.79556H10.2262L12.9459 15.9049H11.984L11.3053 14.0495ZM8.60994 13.278H11.0269L9.816 9.95279L8.60994 13.278ZM16.3492 12.0915H18.3316V12.946H16.3492V15.192H15.441V12.946H13.4586V12.0915H15.441V10.0163H16.3492V12.0915Z" fill="black"/>
<path d="M11.3053 14.0495L11.3992 14.0151L11.3752 13.9495H11.3053V14.0495ZM8.32674 14.0495V13.9495H8.25649L8.23267 14.0156L8.32674 14.0495ZM7.65779 15.9049V16.0049H7.72804L7.75187 15.9389L7.65779 15.9049ZM6.691 15.9049L6.59758 15.8693L6.54577 16.0049H6.691V15.9049ZM9.40584 8.79556V8.69556H9.33698L9.31242 8.75989L9.40584 8.79556ZM10.2262 8.79556L10.3196 8.75983L10.295 8.69556H10.2262V8.79556ZM12.9459 15.9049V16.0049H13.0912L13.0393 15.8692L12.9459 15.9049ZM11.984 15.9049L11.8901 15.9393L11.9141 16.0049H11.984V15.9049ZM8.60994 13.278L8.51593 13.2439L8.4673 13.378H8.60994V13.278ZM11.0269 13.278V13.378H11.1698L11.1209 13.2438L11.0269 13.278ZM9.816 9.95279L9.90996 9.91857L9.81581 9.66003L9.72199 9.91869L9.816 9.95279ZM11.3053 13.9495H8.32674V14.1495H11.3053V13.9495ZM8.23267 14.0156L7.56372 15.871L7.75187 15.9389L8.42081 14.0834L8.23267 14.0156ZM7.65779 15.8049H6.691V16.0049H7.65779V15.8049ZM6.78442 15.9406L9.49926 8.83124L9.31242 8.75989L6.59758 15.8693L6.78442 15.9406ZM9.40584 8.89556H10.2262V8.69556H9.40584V8.89556ZM10.1328 8.83129L12.8525 15.9407L13.0393 15.8692L10.3196 8.75983L10.1328 8.83129ZM12.9459 15.8049H11.984V16.0049H12.9459V15.8049ZM12.0779 15.8706L11.3992 14.0151L11.2113 14.0838L11.8901 15.9393L12.0779 15.8706ZM8.60994 13.378H11.0269V13.178H8.60994V13.378ZM11.1209 13.2438L9.90996 9.91857L9.72203 9.98701L10.933 13.3122L11.1209 13.2438ZM9.72199 9.91869L8.51593 13.2439L8.70395 13.3121L9.91 9.98689L9.72199 9.91869ZM16.3492 12.0915H16.2492V12.1915H16.3492V12.0915ZM18.3316 12.0915H18.4316V11.9915H18.3316V12.0915ZM18.3316 12.946V13.046H18.4316V12.946H18.3316ZM16.3492 12.946V12.846H16.2492V12.946H16.3492ZM16.3492 15.192V15.292H16.4492V15.192H16.3492ZM15.441 15.192H15.341V15.292H15.441V15.192ZM15.441 12.946H15.541V12.846H15.441V12.946ZM13.4586 12.946H13.3586V13.046H13.4586V12.946ZM13.4586 12.0915V11.9915H13.3586V12.0915H13.4586ZM15.441 12.0915V12.1915H15.541V12.0915H15.441ZM15.441 10.0163V9.91627H15.341V10.0163H15.441ZM16.3492 10.0163H16.4492V9.91627H16.3492V10.0163ZM16.3492 12.1915H18.3316V11.9915H16.3492V12.1915ZM18.2316 12.0915V12.946H18.4316V12.0915H18.2316ZM18.3316 12.846H16.3492V13.046H18.3316V12.846ZM16.2492 12.946V15.192H16.4492V12.946H16.2492ZM16.3492 15.092H15.441V15.292H16.3492V15.092ZM15.541 15.192V12.946H15.341V15.192H15.541ZM15.441 12.846H13.4586V13.046H15.441V12.846ZM13.5586 12.946V12.0915H13.3586V12.946H13.5586ZM13.4586 12.1915H15.441V11.9915H13.4586V12.1915ZM15.541 12.0915V10.0163H15.341V12.0915H15.541ZM15.441 10.1163H16.3492V9.91627H15.441V10.1163ZM16.2492 10.0163V12.0915H16.4492V10.0163H16.2492Z" fill="black"/>
</svg>
