<svg width="44" height="50" viewBox="0 0 44 50" fill="none" xmlns="http://www.w3.org/2000/svg">
<path d="M1.7229 33.9585V48.9868H10.1975V33.9585H1.7229Z" fill="#32A1D1"/>
<path d="M17.5422 26.8398V48.9868H26.2428V26.8398H17.5422Z" fill="#32A1D1"/>
<path d="M33.3615 14.8624V48.9868H42.1751V14.8624H33.3615Z" fill="#32A1D1"/>
<path d="M1.7229 33.9585V48.9868H10.1975V33.9585H1.7229Z" stroke="black" stroke-width="2"/>
<path d="M17.5422 26.8398V48.9868H26.2428V26.8398H17.5422Z" stroke="black" stroke-width="2"/>
<path d="M33.3615 14.8624V48.9868H42.1751V14.8624H33.3615Z" stroke="black" stroke-width="2"/>
<path d="M0.688934 17.6822C0.345693 16.8934 1.12473 16.1237 1.88642 15.7237L16.5371 8.03068C17.3879 7.58391 18.4013 7.57179 19.2626 7.99807L23.079 9.887C23.9498 10.318 24.9755 10.3006 25.8312 9.84016L37.5521 3.53348L39.2127 5.65895L25.8593 13.1176C24.9889 13.6038 23.9338 13.6258 23.0439 13.1763L17.8915 10.5741L3.33314 18.0665C2.50341 18.4935 1.35919 18.6631 0.815576 17.9046C0.765096 17.8342 0.722939 17.7604 0.688934 17.6822Z" fill="black" stroke="black"/>
<path d="M41.3052 3.80175C41.4533 3.26971 41.1421 2.7183 40.6101 2.57013L31.94 0.155676C31.408 0.00751242 30.8565 0.318706 30.7084 0.850745C30.5602 1.38279 30.8714 1.9342 31.4035 2.08236L39.1102 4.22855L36.964 11.9353C36.8158 12.4673 37.127 13.0187 37.6591 13.1669C38.1911 13.3151 38.7425 13.0039 38.8907 12.4718L41.3052 3.80175ZM34.1248 8.19036L40.8333 4.40436L39.8503 2.66259L33.1418 6.44859L34.1248 8.19036Z" fill="black"/>
</svg>
