<svg width="45" height="42" viewBox="0 0 45 42" fill="none" xmlns="http://www.w3.org/2000/svg">
<path d="M43.7364 21.0446C43.7364 32.3141 34.2674 41.4797 22.5492 41.4797C10.831 41.4797 1.36188 32.3141 1.36188 21.0446C1.36188 9.77504 10.831 0.609436 22.5492 0.609436C34.2674 0.609436 43.7364 9.77504 43.7364 21.0446Z" fill="#32A1D1" stroke="black"/>
<path d="M20.2732 29.2695C19.8399 28.4028 19.6232 27.3861 19.6232 26.2195C19.6232 25.1528 19.9732 24.1361 20.6732 23.1695C21.4066 22.2028 22.6732 20.9361 24.4732 19.3695C25.7066 18.3028 26.6066 17.4528 27.1732 16.8195C27.7399 16.1528 28.1399 15.4861 28.3732 14.8195C28.6066 14.1195 28.7232 13.2528 28.7232 12.2195C28.7232 10.6528 28.1899 9.50279 27.1232 8.76946C26.0566 8.00279 24.3732 7.61946 22.0732 7.61946C20.6399 7.61946 18.0566 8.00279 14.3232 8.76946L14.0732 5.71946C17.4066 4.71946 20.1899 4.21946 22.4232 4.21946C25.8899 4.21946 28.4399 4.85279 30.0732 6.11946C31.7066 7.38612 32.5232 9.41946 32.5232 12.2195C32.5232 13.7195 32.4066 14.9195 32.1732 15.8195C31.9399 16.7195 31.5066 17.5528 30.8732 18.3195C30.2732 19.0861 29.3566 19.9861 28.1232 21.0195C26.2899 22.5528 25.0399 23.7528 24.3732 24.6195C23.7399 25.4861 23.4232 26.4528 23.4232 27.5195V29.2695H20.2732ZM19.7232 33.6695H23.8232V39.2695H19.7232V33.6695Z" fill="white"/>
<path d="M20.2732 29.2695L19.3788 29.7167L19.6552 30.2695H20.2732V29.2695ZM20.6732 23.1695L19.8765 22.5651L19.8698 22.5739L19.8633 22.5829L20.6732 23.1695ZM24.4732 19.3695L23.8191 18.6131L23.8167 18.6152L24.4732 19.3695ZM27.1732 16.8195L27.9185 17.4863L27.9269 17.4768L27.9352 17.4671L27.1732 16.8195ZM28.3732 14.8195L29.3171 15.1498L29.3195 15.1428L29.3219 15.1357L28.3732 14.8195ZM27.1232 8.76946L26.5396 9.58147L26.5481 9.58758L26.5567 9.5935L27.1232 8.76946ZM14.3232 8.76946L13.3266 8.85115L13.4188 9.97606L14.5244 9.74902L14.3232 8.76946ZM14.0732 5.71946L13.7859 4.76163L13.0104 4.99426L13.0766 5.80115L14.0732 5.71946ZM30.0732 6.11946L30.686 5.32924V5.32924L30.0732 6.11946ZM32.1732 15.8195L31.2052 15.5685V15.5685L32.1732 15.8195ZM30.8732 18.3195L30.1023 17.6826L30.0939 17.6928L30.0857 17.7031L30.8732 18.3195ZM28.1232 21.0195L28.7648 21.7865L28.7654 21.786L28.1232 21.0195ZM24.3732 24.6195L23.5806 24.0097L23.5731 24.0195L23.5658 24.0294L24.3732 24.6195ZM23.4232 29.2695V30.2695H24.4232V29.2695H23.4232ZM19.7232 33.6695V32.6695H18.7232V33.6695H19.7232ZM23.8232 33.6695H24.8232V32.6695H23.8232V33.6695ZM23.8232 39.2695V40.2695H24.8232V39.2695H23.8232ZM19.7232 39.2695H18.7232V40.2695H19.7232V39.2695ZM21.1677 28.8222C20.8165 28.12 20.6232 27.2622 20.6232 26.2195H18.6232C18.6232 27.5101 18.8633 28.6856 19.3788 29.7167L21.1677 28.8222ZM20.6232 26.2195C20.6232 25.3882 20.8913 24.5732 21.4832 23.756L19.8633 22.5829C19.0551 23.699 18.6232 24.9174 18.6232 26.2195H20.6232ZM21.4699 23.7738C22.139 22.8919 23.342 21.6798 25.1297 20.1238L23.8167 18.6152C22.0045 20.1925 20.6741 21.5137 19.8765 22.5651L21.4699 23.7738ZM25.1274 20.1258C26.3694 19.0516 27.3083 18.1683 27.9185 17.4863L26.428 16.1527C25.9049 16.7373 25.0437 17.5539 23.8191 18.6131L25.1274 20.1258ZM27.9352 17.4671C28.5631 16.7283 29.0347 15.9566 29.3171 15.1498L27.4294 14.4891C27.2451 15.0157 26.9167 15.5772 26.4113 16.1718L27.9352 17.4671ZM29.3219 15.1357C29.5998 14.3019 29.7232 13.3207 29.7232 12.2195H27.7232C27.7232 13.1849 27.6133 13.937 27.4245 14.5032L29.3219 15.1357ZM29.7232 12.2195C29.7232 10.4024 29.0869 8.90594 27.6898 7.94542L26.5567 9.5935C27.2929 10.0996 27.7232 10.9032 27.7232 12.2195H29.7232ZM27.7069 7.95744C26.3841 7.0067 24.4433 6.61946 22.0732 6.61946V8.61946C24.3032 8.61946 25.729 8.99889 26.5396 9.58147L27.7069 7.95744ZM22.0732 6.61946C20.5246 6.61946 17.8475 7.02486 14.1221 7.7899L14.5244 9.74902C18.2656 8.98072 20.7552 8.61946 22.0732 8.61946V6.61946ZM15.3199 8.68776L15.0699 5.63776L13.0766 5.80115L13.3266 8.85115L15.3199 8.68776ZM14.3606 6.67728C17.6465 5.6915 20.3256 5.21946 22.4232 5.21946V3.21946C20.0541 3.21946 17.1666 3.74741 13.7859 4.76163L14.3606 6.67728ZM22.4232 5.21946C25.8049 5.21946 28.0864 5.84409 29.4604 6.90968L30.686 5.32924C28.7934 3.86149 25.9749 3.21946 22.4232 3.21946V5.21946ZM29.4604 6.90968C30.7696 7.925 31.5232 9.61105 31.5232 12.2195H33.5232C33.5232 9.22786 32.6435 6.84725 30.686 5.32924L29.4604 6.90968ZM31.5232 12.2195C31.5232 13.6797 31.4084 14.7848 31.2052 15.5685L33.1412 16.0704C33.4047 15.0541 33.5232 13.7592 33.5232 12.2195H31.5232ZM31.2052 15.5685C31.0111 16.3173 30.6491 17.0206 30.1023 17.6826L31.6442 18.9563C32.364 18.085 32.8687 17.1216 33.1412 16.0704L31.2052 15.5685ZM30.0857 17.7031C29.5475 18.3909 28.6906 19.2395 27.481 20.2529L28.7654 21.786C30.0225 20.7328 30.999 19.7814 31.6607 18.9358L30.0857 17.7031ZM27.4817 20.2524C25.6422 21.7909 24.3189 23.05 23.5806 24.0097L25.1658 25.2292C25.7609 24.4556 26.9376 23.3147 28.7648 21.7865L27.4817 20.2524ZM23.5658 24.0294C22.8082 25.0662 22.4232 26.2392 22.4232 27.5195H24.4232C24.4232 26.6664 24.6716 25.906 25.1806 25.2095L23.5658 24.0294ZM22.4232 27.5195V29.2695H24.4232V27.5195H22.4232ZM23.4232 28.2695H20.2732V30.2695H23.4232V28.2695ZM19.7232 34.6695H23.8232V32.6695H19.7232V34.6695ZM22.8232 33.6695V39.2695H24.8232V33.6695H22.8232ZM23.8232 38.2695H19.7232V40.2695H23.8232V38.2695ZM20.7232 39.2695V33.6695H18.7232V39.2695H20.7232Z" fill="black"/>
</svg>
